<svg xmlns="http://www.w3.org/2000/svg" width="67" height="56" viewBox="0 0 67 56" fill="none">
  <path d="M35.7342 33.8975C34.8724 32.0965 34.6425 30.6744 35.2203 28.5177L35.4168 27.7845C36.1698 24.9741 36.0082 22.9901 35.0871 20.8025C33.6732 17.4097 30.4785 14.7371 26.9065 13.78L26.7546 13.7393C23.2576 12.8023 19.2899 13.4723 16.362 15.5794C14.384 17.029 13.156 18.7242 12.3821 21.6123L12.1857 22.3456C11.6078 24.5022 10.7352 25.629 9.05075 26.7476C7.81098 27.5721 7.13555 28.8777 6.73331 30.3789C6.33062 31.8818 6.44246 33.4372 7.1223 34.8595C8.04258 36.5927 9.62973 37.967 11.4522 38.6203C14.0679 39.6511 16.735 40.49 19.4725 41.2235C22.2083 41.9565 24.9584 42.4858 27.7199 42.9792C29.6231 43.3242 31.6848 42.9276 33.3484 41.8867C34.6466 40.9945 35.5229 39.7038 35.9256 38.2009C36.3278 36.6998 36.3957 35.2313 35.7342 33.8975Z" fill="url(#paint0_linear_831_34730)"/>
  <path d="M22.3205 44.3879C21.5111 43.9746 16.2803 42.573 15.3727 42.5263C14.5934 42.4991 13.6942 42.6808 13.4625 43.5455C13.2841 44.3819 13.572 45.2394 14.1173 45.8804L14.1151 45.8817C14.7996 46.788 15.7002 47.489 16.7222 47.9278C17.2679 48.1575 17.8457 48.3086 18.4527 48.3915C19.5555 48.522 20.6859 48.3652 21.7319 47.9226L21.7306 47.9204C22.5234 47.6379 23.2014 47.0392 23.4651 46.2257C23.6969 45.361 23.0089 44.754 22.3205 44.3879Z" fill="url(#paint1_linear_831_34730)"/>
  <g opacity="0.5" filter="url(#filter0_f_831_34730)">
    <path d="M29.7638 31.1441C29.4405 30.0188 29.4006 29.108 29.783 27.6811L29.9129 27.196C30.4111 25.3367 30.4315 24.0582 30.099 22.6851C29.5901 20.5547 28.1948 18.979 26.5347 18.5341L26.4641 18.5152C24.8389 18.0798 22.9096 18.7094 21.4065 20.2198C20.3898 21.2571 19.7195 22.4167 19.2075 24.3275L19.0775 24.8126C18.6952 26.2394 18.2227 27.013 17.3626 27.8212C16.7295 28.4168 16.3424 29.2967 16.0763 30.2898C15.8099 31.2841 15.7868 32.2872 16.0417 33.176C16.3963 34.2545 17.0872 35.0675 17.9261 35.4014C19.1255 35.9411 20.359 36.3538 21.6312 36.6947C22.9026 37.0354 24.191 37.2432 25.4866 37.4273C26.3792 37.5573 27.3841 37.1987 28.2304 36.4419C28.8947 35.7995 29.3771 34.9194 29.6435 33.9251C29.9096 32.932 30.0143 31.9765 29.7638 31.1441Z" fill="#0062FF"/>
  </g>
  <g filter="url(#filter1_b_831_34730)">
    <mask id="path-4-outside-1_831_34730" maskUnits="userSpaceOnUse" x="14.4097" y="-1.33247" width="53.8801" height="51.5633" fill="black">
      <rect fill="white" x="14.4097" y="-1.33247" width="53.8801" height="51.5633"/>
      <path d="M61.1924 24.4134C58.9245 22.6718 57.7093 21.0045 57.0498 17.8756L56.8255 16.8117C55.9661 12.7345 54.4739 10.3052 51.8799 8.10829C47.8753 4.69134 42.0632 3.34831 36.8809 4.44071L36.6605 4.48716C31.5872 5.55659 26.9538 8.98352 24.5799 13.572C22.9931 16.7053 22.5233 19.666 23.4065 23.8562L23.6308 24.9201C24.2903 28.0489 23.906 30.0535 22.4796 32.5738C21.4305 34.4302 21.414 36.5354 21.8731 38.7133C22.3327 40.8937 23.4835 42.8078 25.2735 44.1837C27.572 45.8009 30.4897 46.5276 33.2406 46.181C37.2493 45.8024 41.1994 45.1453 45.1709 44.3082C49.14 43.4715 52.9953 42.3653 56.8421 41.2059C59.4964 40.4132 61.8724 38.5706 63.3226 36.1632C64.4024 34.1824 64.6852 31.9661 64.2256 29.7857C63.7665 27.6078 62.9016 25.6884 61.1924 24.4134Z"/>
    </mask>
    <path d="M61.1924 24.4134C58.9245 22.6718 57.7093 21.0045 57.0498 17.8756L56.8255 16.8117C55.9661 12.7345 54.4739 10.3052 51.8799 8.10829C47.8753 4.69134 42.0632 3.34831 36.8809 4.44071L36.6605 4.48716C31.5872 5.55659 26.9538 8.98352 24.5799 13.572C22.9931 16.7053 22.5233 19.666 23.4065 23.8562L23.6308 24.9201C24.2903 28.0489 23.906 30.0535 22.4796 32.5738C21.4305 34.4302 21.414 36.5354 21.8731 38.7133C22.3327 40.8937 23.4835 42.8078 25.2735 44.1837C27.572 45.8009 30.4897 46.5276 33.2406 46.181C37.2493 45.8024 41.1994 45.1453 45.1709 44.3082C49.14 43.4715 52.9953 42.3653 56.8421 41.2059C59.4964 40.4132 61.8724 38.5706 63.3226 36.1632C64.4024 34.1824 64.6852 31.9661 64.2256 29.7857C63.7665 27.6078 62.9016 25.6884 61.1924 24.4134Z" fill="#3EA0FE" fill-opacity="0.35"/>
    <path d="M60.5833 25.2065C61.0213 25.5429 61.6491 25.4605 61.9855 25.0225C62.3219 24.5844 62.2395 23.9567 61.8014 23.6203L60.5833 25.2065ZM51.8799 8.10829L51.2308 8.869L51.2336 8.87138L51.8799 8.10829ZM24.5799 13.572L23.6917 13.1125L23.6878 13.1202L24.5799 13.572ZM22.4796 32.5738L21.6094 32.0812L21.609 32.0818L22.4796 32.5738ZM25.2735 44.1837L24.664 44.9765C24.6752 44.9851 24.6865 44.9934 24.698 45.0015L25.2735 44.1837ZM33.2406 46.181L33.1466 45.1854C33.1362 45.1864 33.1259 45.1875 33.1155 45.1888L33.2406 46.181ZM56.8421 41.2059L56.5559 40.2477L56.5535 40.2485L56.8421 41.2059ZM63.3226 36.1632L64.1792 36.6792C64.1866 36.6669 64.1938 36.6544 64.2006 36.6418L63.3226 36.1632ZM61.7903 23.6118C61.3476 23.2816 60.721 23.3728 60.3908 23.8155C60.0606 24.2582 60.1518 24.8847 60.5945 25.215L61.7903 23.6118ZM61.8014 23.6203C60.7214 22.7909 59.9429 22.0179 59.3553 21.118C58.7691 20.2204 58.3392 19.1445 58.0283 17.6693L56.0713 18.0819C56.4199 19.7355 56.9273 21.0578 57.6806 22.2115C58.4325 23.3629 59.3955 24.2943 60.5833 25.2065L61.8014 23.6203ZM58.0283 17.6693L57.804 16.6055L55.847 17.018L56.0713 18.0819L58.0283 17.6693ZM57.804 16.6055C56.9028 12.33 55.304 9.69787 52.5262 7.34519L51.2336 8.87138C53.6437 10.9126 55.0293 13.1389 55.847 17.018L57.804 16.6055ZM52.529 7.34757C48.2739 3.71691 42.1412 2.3099 36.6747 3.46221L37.0872 5.4192C41.9853 4.38672 47.4767 5.66577 51.2308 8.869L52.529 7.34757ZM36.6747 3.46221L36.4543 3.50866L36.8668 5.46566L37.0872 5.4192L36.6747 3.46221ZM36.4543 3.50866C31.0988 4.63755 26.2089 8.2471 23.6917 13.1125L25.4681 14.0316C27.6987 9.71993 32.0755 6.47563 36.8668 5.46566L36.4543 3.50866ZM23.6878 13.1202C21.9936 16.4655 21.4999 19.6594 22.428 24.0625L24.385 23.65C23.5466 19.6727 23.9925 16.9451 25.472 14.0238L23.6878 13.1202ZM22.428 24.0625L22.6523 25.1263L24.6093 24.7138L24.385 23.65L22.428 24.0625ZM22.6523 25.1263C22.9648 26.6089 23.0174 27.7644 22.8498 28.8181C22.6824 29.8715 22.2848 30.8878 21.6094 32.0812L23.3499 33.0663C24.1009 31.7395 24.6086 30.4933 24.825 29.1321C25.0414 27.7713 24.9563 26.3601 24.6093 24.7138L22.6523 25.1263ZM21.609 32.0818C20.3913 34.2366 20.4105 36.6232 20.8946 38.9195L22.8516 38.507C22.4174 36.4475 22.4698 34.6237 23.3502 33.0658L21.609 32.0818ZM20.8946 38.9195C21.4006 41.3201 22.6748 43.4474 24.664 44.9765L25.8829 43.3908C24.2923 42.1682 23.2648 40.4672 22.8516 38.507L20.8946 38.9195ZM24.698 45.0015C27.1986 46.7609 30.3658 47.5511 33.3656 47.1731L33.1155 45.1888C30.6136 45.5041 27.9453 44.8408 25.8489 43.3658L24.698 45.0015ZM33.3346 47.1765C37.3898 46.7936 41.3783 46.1296 45.3772 45.2867L44.9646 43.3297C41.0204 44.1611 37.1088 44.8112 33.1466 45.1854L33.3346 47.1765ZM45.3772 45.2867C49.3896 44.4409 53.2784 43.3245 57.1307 42.1634L56.5535 40.2485C52.7123 41.4062 48.8903 42.5022 44.9646 43.3297L45.3772 45.2867ZM57.1283 42.1641C60.023 41.2996 62.6016 39.2981 64.1792 36.6792L62.466 35.6472C61.1433 37.843 58.9697 39.5268 56.5559 40.2478L57.1283 42.1641ZM64.2006 36.6418C65.4001 34.4414 65.7102 31.9807 65.204 29.5794L63.2471 29.9919C63.6601 31.9514 63.4047 33.9234 62.4446 35.6846L64.2006 36.6418ZM65.204 29.5794C64.72 27.2831 63.7743 25.0918 61.7903 23.6118L60.5945 25.215C62.0289 26.2849 62.8129 27.9324 63.2471 29.9919L65.204 29.5794Z" fill="url(#paint2_linear_831_34730)" mask="url(#path-4-outside-1_831_34730)"/>
  </g>
  <g filter="url(#filter2_b_831_34730)">
    <mask id="path-6-outside-2_831_34730" maskUnits="userSpaceOnUse" x="37.336" y="44.6168" width="18.6971" height="13.2914" fill="black">
      <rect fill="white" x="37.336" y="44.6168" width="18.6971" height="13.2914"/>
      <path d="M50.8588 46.5031C49.5573 46.4996 41.9682 48.0994 40.7788 48.6279C39.766 49.0982 38.7352 49.9129 38.9997 51.1675C39.3139 52.3513 40.2372 53.2599 41.3491 53.7252L41.3471 53.7283C42.8087 54.4422 44.4131 54.7539 46.0028 54.6521C46.8486 54.5917 47.6845 54.4103 48.5135 54.1228C50.0065 53.5749 51.3486 52.6421 52.3976 51.3989L52.3946 51.3969C53.224 50.5224 53.7021 49.3184 53.5117 48.1085C53.2472 46.8539 51.9753 46.5245 50.8588 46.5031Z"/>
    </mask>
    <path d="M50.8588 46.5031C49.5573 46.4996 41.9682 48.0994 40.7788 48.6279C39.766 49.0982 38.7352 49.9129 38.9997 51.1675C39.3139 52.3513 40.2372 53.2599 41.3491 53.7252L41.3471 53.7283C42.8087 54.4422 44.4131 54.7539 46.0028 54.6521C46.8486 54.5917 47.6845 54.4103 48.5135 54.1228C50.0065 53.5749 51.3486 52.6421 52.3976 51.3989L52.3946 51.3969C53.224 50.5224 53.7021 49.3184 53.5117 48.1085C53.2472 46.8539 51.9753 46.5245 50.8588 46.5031Z" fill="#3EA0FE" fill-opacity="0.35"/>
    <path d="M50.8561 47.5031C51.4084 47.5045 51.8573 47.058 51.8588 46.5057C51.8602 45.9534 51.4137 45.5045 50.8614 45.5031L50.8561 47.5031ZM40.7788 48.6279L40.3728 47.714C40.3677 47.7163 40.3627 47.7185 40.3577 47.7209L40.7788 48.6279ZM38.9997 51.1675L38.0212 51.3738C38.0247 51.3906 38.0287 51.4074 38.0331 51.424L38.9997 51.1675ZM41.3491 53.7252L42.1904 54.2658C42.3502 54.0171 42.3917 53.7104 42.3039 53.4281C42.2161 53.1459 42.0078 52.9169 41.7351 52.8028L41.3491 53.7252ZM41.3471 53.7283L40.5058 53.1877C40.3515 53.4279 40.3072 53.7226 40.3841 53.9976C40.461 54.2725 40.6517 54.5015 40.9082 54.6268L41.3471 53.7283ZM46.0028 54.6521L46.0667 55.65L46.074 55.6495L46.0028 54.6521ZM48.5135 54.1228L48.8411 55.0676C48.8467 55.0657 48.8524 55.0637 48.858 55.0616L48.5135 54.1228ZM52.3976 51.3989L53.1619 52.0438C53.346 51.8256 53.4281 51.5391 53.3874 51.2565C53.3468 50.9739 53.1873 50.7221 52.9491 50.5647L52.3976 51.3989ZM52.3946 51.3969L51.669 50.7088C51.4656 50.9233 51.3675 51.2168 51.4011 51.5106C51.4347 51.8043 51.5966 52.0681 51.8432 52.2311L52.3946 51.3969ZM53.5117 48.1085L54.4995 47.953C54.4968 47.936 54.4937 47.9191 54.4902 47.9022L53.5117 48.1085ZM50.878 45.5033C50.3258 45.4926 49.8696 45.9317 49.8589 46.4839C49.8483 47.036 50.2874 47.4923 50.8395 47.5029L50.878 45.5033ZM50.8614 45.5031C50.4316 45.5019 49.6213 45.6202 48.7317 45.7739C47.8034 45.9343 46.6832 46.153 45.5705 46.3875C44.4578 46.622 43.3446 46.8742 42.4306 47.1021C41.5546 47.3206 40.7655 47.5395 40.3728 47.714L41.1849 49.5417C41.3868 49.452 41.9924 49.2727 42.9146 49.0427C43.7987 48.8222 44.8871 48.5755 45.983 48.3445C47.079 48.1135 48.1743 47.8998 49.0722 47.7447C50.0088 47.5829 50.6352 47.5025 50.8561 47.5031L50.8614 45.5031ZM40.3577 47.7209C39.787 47.9858 39.1282 48.383 38.6437 48.9614C38.1318 49.5726 37.8148 50.3947 38.0212 51.3738L39.9782 50.9612C39.9201 50.6857 39.9863 50.4732 40.1768 50.2457C40.3948 49.9855 40.7578 49.7402 41.2 49.5348L40.3577 47.7209ZM38.0331 51.424C38.4415 52.9626 39.6215 54.0863 40.963 54.6477L41.7351 52.8028C40.853 52.4336 40.1862 51.7399 39.9662 50.911L38.0331 51.424ZM40.5077 53.1847L40.5058 53.1877L42.1884 54.2688L42.1904 54.2658L40.5077 53.1847ZM40.9082 54.6268C42.5264 55.4172 44.3041 55.763 46.0667 55.65L45.9388 53.6541C44.5221 53.7449 43.0911 53.4672 41.786 52.8297L40.9082 54.6268ZM46.074 55.6495C47.016 55.5823 47.9381 55.3807 48.8411 55.0676L48.1859 53.178C47.4309 53.4398 46.6812 53.6011 45.9316 53.6546L46.074 55.6495ZM48.858 55.0616C50.5137 54.4539 52.0005 53.42 53.1619 52.0438L51.6334 50.754C50.6966 51.8641 49.4993 52.6958 48.1689 53.1841L48.858 55.0616ZM52.9491 50.5647L52.9461 50.5627L51.8432 52.2311L51.8462 52.2331L52.9491 50.5647ZM53.1202 52.0851C54.1209 51.0299 54.747 49.5256 54.4995 47.953L52.5238 48.2639C52.6572 49.1111 52.3271 50.0149 51.669 50.7088L53.1202 52.0851ZM54.4902 47.9022C54.2838 46.9231 53.6619 46.2989 52.9469 45.9464C52.2701 45.6128 51.507 45.5154 50.878 45.5033L50.8395 47.5029C51.327 47.5123 51.7581 47.5902 52.0626 47.7403C52.3288 47.8715 52.4751 48.0392 52.5332 48.3147L54.4902 47.9022Z" fill="url(#paint3_linear_831_34730)" mask="url(#path-6-outside-2_831_34730)"/>
  </g>
  <g filter="url(#filter3_bd_831_34730)">
    <path d="M45.1925 11.0809C44.2896 10.8782 43.3779 11.4055 43.0961 12.2595C43.0014 12.7347 43.0767 13.2381 43.3454 13.6394C43.614 14.0406 44.0345 14.3249 44.5273 14.4295L44.5924 14.4491C46.0602 14.8902 47.1144 16.1891 47.2139 17.6865C47.2618 18.6625 48.0889 19.4147 49.0591 19.3857C50.0357 19.3358 50.7837 18.5303 50.7463 17.5804C50.532 14.5604 48.4031 11.977 45.4424 11.1559L45.1925 11.0809Z" fill="url(#paint4_linear_831_34730)"/>
    <path d="M44.5481 14.3317L44.5482 14.3314L44.5561 14.3338L44.6212 14.3533C46.1276 14.806 47.2114 16.1395 47.3137 17.6799L47.3137 17.6799L47.3138 17.6816C47.3589 18.6021 48.139 19.3126 49.0551 19.2858C49.9778 19.238 50.6807 18.4781 50.6464 17.5859C50.4346 14.6095 48.3358 12.0621 45.4157 11.2523L45.4157 11.2523L45.4136 11.2517L45.1672 11.1777C44.3177 10.9888 43.4605 11.4844 43.193 12.2851C43.1045 12.7362 43.1777 13.2092 43.4285 13.5837C43.6822 13.9628 44.0801 14.2324 44.5481 14.3317Z" stroke="url(#paint5_linear_831_34730)" stroke-opacity="0.5" stroke-width="0.2"/>
  </g>
  <defs>
    <filter id="filter0_f_831_34730" x="0.863037" y="3.37988" width="44.4592" height="49.0732" filterUnits="userSpaceOnUse" color-interpolation-filters="sRGB">
      <feFlood flood-opacity="0" result="BackgroundImageFix"/>
      <feBlend mode="normal" in="SourceGraphic" in2="BackgroundImageFix" result="shape"/>
      <feGaussianBlur stdDeviation="7.5" result="effect1_foregroundBlur_831_34730"/>
    </filter>
    <filter id="filter1_b_831_34730" x="5.58618" y="-11.9307" width="74.8511" height="74.1963" filterUnits="userSpaceOnUse" color-interpolation-filters="sRGB">
      <feFlood flood-opacity="0" result="BackgroundImageFix"/>
      <feGaussianBlur in="BackgroundImageFix" stdDeviation="7.5"/>
      <feComposite in2="SourceAlpha" operator="in" result="effect1_backgroundBlur_831_34730"/>
      <feBlend mode="normal" in="SourceGraphic" in2="effect1_backgroundBlur_831_34730" result="shape"/>
    </filter>
    <filter id="filter2_b_831_34730" x="22.9573" y="30.5029" width="46.5964" height="40.168" filterUnits="userSpaceOnUse" color-interpolation-filters="sRGB">
      <feFlood flood-opacity="0" result="BackgroundImageFix"/>
      <feGaussianBlur in="BackgroundImageFix" stdDeviation="7.5"/>
      <feComposite in2="SourceAlpha" operator="in" result="effect1_backgroundBlur_831_34730"/>
      <feBlend mode="normal" in="SourceGraphic" in2="effect1_backgroundBlur_831_34730" result="shape"/>
    </filter>
    <filter id="filter3_bd_831_34730" x="28.0571" y="-3.96289" width="37.6904" height="38.3496" filterUnits="userSpaceOnUse" color-interpolation-filters="sRGB">
      <feFlood flood-opacity="0" result="BackgroundImageFix"/>
      <feGaussianBlur in="BackgroundImageFix" stdDeviation="7.5"/>
      <feComposite in2="SourceAlpha" operator="in" result="effect1_backgroundBlur_831_34730"/>
      <feColorMatrix in="SourceAlpha" type="matrix" values="0 0 0 0 0 0 0 0 0 0 0 0 0 0 0 0 0 0 127 0" result="hardAlpha"/>
      <feOffset dx="5" dy="5"/>
      <feGaussianBlur stdDeviation="5"/>
      <feColorMatrix type="matrix" values="0 0 0 0 0.15375 0 0 0 0 0.522433 0 0 0 0 0.9 0 0 0 0.5 0"/>
      <feBlend mode="normal" in2="effect1_backgroundBlur_831_34730" result="effect2_dropShadow_831_34730"/>
      <feBlend mode="normal" in="SourceGraphic" in2="effect2_dropShadow_831_34730" result="shape"/>
    </filter>
    <linearGradient id="paint0_linear_831_34730" x1="41.5458" y1="17.7026" x2="4.02542" y2="35.8444" gradientUnits="userSpaceOnUse">
      <stop stop-color="#39AFFD"/>
      <stop offset="1" stop-color="#477FFF"/>
    </linearGradient>
    <linearGradient id="paint1_linear_831_34730" x1="23.9256" y1="44.6706" x2="16.9104" y2="51.4262" gradientUnits="userSpaceOnUse">
      <stop stop-color="#39AFFD"/>
      <stop offset="1" stop-color="#477FFF"/>
    </linearGradient>
    <linearGradient id="paint2_linear_831_34730" x1="23.3148" y1="12.1485" x2="55.3131" y2="39.8433" gradientUnits="userSpaceOnUse">
      <stop stop-color="white" stop-opacity="0.25"/>
      <stop offset="1" stop-color="white" stop-opacity="0"/>
    </linearGradient>
    <linearGradient id="paint3_linear_831_34730" x1="41.0053" y1="49.2362" x2="45.8654" y2="56.5872" gradientUnits="userSpaceOnUse">
      <stop stop-color="white" stop-opacity="0.25"/>
      <stop offset="1" stop-color="white" stop-opacity="0"/>
    </linearGradient>
    <linearGradient id="paint4_linear_831_34730" x1="50.4779" y1="13.1808" x2="48.0669" y2="20.5255" gradientUnits="userSpaceOnUse">
      <stop stop-color="white"/>
      <stop offset="1" stop-color="white" stop-opacity="0.2"/>
    </linearGradient>
    <linearGradient id="paint5_linear_831_34730" x1="47.511" y1="18.2369" x2="49.1816" y2="12.5901" gradientUnits="userSpaceOnUse">
      <stop stop-color="white"/>
      <stop offset="1" stop-color="white" stop-opacity="0"/>
    </linearGradient>
  </defs>
</svg>